<mxfile host="app.diagrams.net" agent="Mozilla/5.0 (Windows NT 10.0; Win64; x64) AppleWebKit/537.36 (KHTML, like Gecko) Chrome/141.0.0.0 Safari/537.36" version="28.2.7">
  <diagram name="Strona-1" id="lJQ7_fPbBZT9_m504iCf">
    <mxGraphModel dx="1226" dy="661" grid="1" gridSize="10" guides="1" tooltips="1" connect="1" arrows="1" fold="1" page="1" pageScale="1" pageWidth="827" pageHeight="1169" math="0" shadow="0">
      <root>
        <mxCell id="0" />
        <mxCell id="1" parent="0" />
        <mxCell id="Nji8UfBKLWpKqNrky-gA-1" style="rounded=0;orthogonalLoop=1;jettySize=auto;html=1;exitX=0.5;exitY=1;exitDx=0;exitDy=0;entryX=0.5;entryY=0;entryDx=0;entryDy=0;endArrow=none;endFill=0;labelBackgroundColor=none;fontColor=default;" edge="1" parent="1" source="Nji8UfBKLWpKqNrky-gA-8" target="Nji8UfBKLWpKqNrky-gA-9">
          <mxGeometry relative="1" as="geometry" />
        </mxCell>
        <mxCell id="Nji8UfBKLWpKqNrky-gA-2" value="1...1" style="edgeLabel;html=1;align=center;verticalAlign=middle;resizable=0;points=[];labelBackgroundColor=none;" vertex="1" connectable="0" parent="Nji8UfBKLWpKqNrky-gA-1">
          <mxGeometry x="-0.4667" relative="1" as="geometry">
            <mxPoint as="offset" />
          </mxGeometry>
        </mxCell>
        <mxCell id="Nji8UfBKLWpKqNrky-gA-3" value="1...1" style="edgeLabel;html=1;align=center;verticalAlign=middle;resizable=0;points=[];labelBackgroundColor=none;" vertex="1" connectable="0" parent="Nji8UfBKLWpKqNrky-gA-1">
          <mxGeometry x="0.4933" relative="1" as="geometry">
            <mxPoint as="offset" />
          </mxGeometry>
        </mxCell>
        <mxCell id="Nji8UfBKLWpKqNrky-gA-4" style="edgeStyle=orthogonalEdgeStyle;rounded=0;orthogonalLoop=1;jettySize=auto;html=1;exitX=1;exitY=0.5;exitDx=0;exitDy=0;entryX=0;entryY=0.5;entryDx=0;entryDy=0;endArrow=none;endFill=0;labelBackgroundColor=none;fontColor=default;" edge="1" parent="1" source="Nji8UfBKLWpKqNrky-gA-8" target="Nji8UfBKLWpKqNrky-gA-16">
          <mxGeometry relative="1" as="geometry" />
        </mxCell>
        <mxCell id="Nji8UfBKLWpKqNrky-gA-5" style="edgeStyle=orthogonalEdgeStyle;rounded=0;orthogonalLoop=1;jettySize=auto;html=1;exitX=0;exitY=1;exitDx=0;exitDy=0;endArrow=none;endFill=0;labelBackgroundColor=none;fontColor=default;" edge="1" parent="1" source="Nji8UfBKLWpKqNrky-gA-8" target="Nji8UfBKLWpKqNrky-gA-17">
          <mxGeometry relative="1" as="geometry">
            <Array as="points">
              <mxPoint x="300" y="95" />
              <mxPoint x="130" y="95" />
            </Array>
          </mxGeometry>
        </mxCell>
        <mxCell id="Nji8UfBKLWpKqNrky-gA-6" value="1...1" style="edgeLabel;html=1;align=center;verticalAlign=middle;resizable=0;points=[];labelBackgroundColor=none;" vertex="1" connectable="0" parent="Nji8UfBKLWpKqNrky-gA-5">
          <mxGeometry x="-0.8402" y="1" relative="1" as="geometry">
            <mxPoint as="offset" />
          </mxGeometry>
        </mxCell>
        <mxCell id="Nji8UfBKLWpKqNrky-gA-7" value="0...N" style="edgeLabel;html=1;align=center;verticalAlign=middle;resizable=0;points=[];labelBackgroundColor=none;" vertex="1" connectable="0" parent="Nji8UfBKLWpKqNrky-gA-5">
          <mxGeometry x="0.8637" y="-1" relative="1" as="geometry">
            <mxPoint as="offset" />
          </mxGeometry>
        </mxCell>
        <mxCell id="Nji8UfBKLWpKqNrky-gA-8" value="User" style="rounded=0;whiteSpace=wrap;html=1;labelBackgroundColor=none;" vertex="1" parent="1">
          <mxGeometry x="300" y="10" width="120" height="60" as="geometry" />
        </mxCell>
        <mxCell id="Nji8UfBKLWpKqNrky-gA-9" value="Cart" style="rounded=0;whiteSpace=wrap;html=1;labelBackgroundColor=none;" vertex="1" parent="1">
          <mxGeometry x="300" y="130" width="120" height="60" as="geometry" />
        </mxCell>
        <mxCell id="Nji8UfBKLWpKqNrky-gA-13" style="edgeStyle=orthogonalEdgeStyle;rounded=0;orthogonalLoop=1;jettySize=auto;html=1;exitX=0.99;exitY=0.178;exitDx=0;exitDy=0;entryX=0;entryY=0.5;entryDx=0;entryDy=0;endArrow=none;endFill=0;labelBackgroundColor=none;fontColor=default;exitPerimeter=0;" edge="1" parent="1" source="Nji8UfBKLWpKqNrky-gA-16" target="Nji8UfBKLWpKqNrky-gA-46">
          <mxGeometry relative="1" as="geometry">
            <Array as="points">
              <mxPoint x="810" y="21" />
              <mxPoint x="890" y="20" />
            </Array>
          </mxGeometry>
        </mxCell>
        <mxCell id="Nji8UfBKLWpKqNrky-gA-14" value="0...N" style="edgeLabel;html=1;align=center;verticalAlign=middle;resizable=0;points=[];labelBackgroundColor=none;" vertex="1" connectable="0" parent="Nji8UfBKLWpKqNrky-gA-13">
          <mxGeometry x="-0.6139" relative="1" as="geometry">
            <mxPoint as="offset" />
          </mxGeometry>
        </mxCell>
        <mxCell id="Nji8UfBKLWpKqNrky-gA-15" value="1...1" style="edgeLabel;html=1;align=center;verticalAlign=middle;resizable=0;points=[];labelBackgroundColor=none;" vertex="1" connectable="0" parent="Nji8UfBKLWpKqNrky-gA-13">
          <mxGeometry x="0.5127" y="2" relative="1" as="geometry">
            <mxPoint y="2" as="offset" />
          </mxGeometry>
        </mxCell>
        <mxCell id="Nji8UfBKLWpKqNrky-gA-90" value="" style="edgeStyle=orthogonalEdgeStyle;rounded=0;orthogonalLoop=1;jettySize=auto;html=1;entryX=0.67;entryY=-0.003;entryDx=0;entryDy=0;exitX=0.33;exitY=0.983;exitDx=0;exitDy=0;exitPerimeter=0;endArrow=none;endFill=0;entryPerimeter=0;" edge="1" parent="1" source="Nji8UfBKLWpKqNrky-gA-16" target="Nji8UfBKLWpKqNrky-gA-71">
          <mxGeometry relative="1" as="geometry">
            <Array as="points" />
          </mxGeometry>
        </mxCell>
        <mxCell id="Nji8UfBKLWpKqNrky-gA-91" value="1...1" style="edgeLabel;html=1;align=center;verticalAlign=middle;resizable=0;points=[];" vertex="1" connectable="0" parent="Nji8UfBKLWpKqNrky-gA-90">
          <mxGeometry x="-0.6312" y="-1" relative="1" as="geometry">
            <mxPoint as="offset" />
          </mxGeometry>
        </mxCell>
        <mxCell id="Nji8UfBKLWpKqNrky-gA-92" value="1...N" style="edgeLabel;html=1;align=center;verticalAlign=middle;resizable=0;points=[];" vertex="1" connectable="0" parent="Nji8UfBKLWpKqNrky-gA-90">
          <mxGeometry x="0.6936" y="-1" relative="1" as="geometry">
            <mxPoint as="offset" />
          </mxGeometry>
        </mxCell>
        <mxCell id="Nji8UfBKLWpKqNrky-gA-16" value="Order" style="rounded=0;whiteSpace=wrap;html=1;labelBackgroundColor=none;" vertex="1" parent="1">
          <mxGeometry x="700" y="10" width="120" height="60" as="geometry" />
        </mxCell>
        <mxCell id="Nji8UfBKLWpKqNrky-gA-17" value="FavoriteProduct" style="rounded=0;whiteSpace=wrap;html=1;labelBackgroundColor=none;" vertex="1" parent="1">
          <mxGeometry x="100" y="130" width="120" height="60" as="geometry" />
        </mxCell>
        <mxCell id="Nji8UfBKLWpKqNrky-gA-18" style="edgeStyle=orthogonalEdgeStyle;rounded=0;orthogonalLoop=1;jettySize=auto;html=1;entryX=0;entryY=0.5;entryDx=0;entryDy=0;endArrow=none;endFill=0;exitX=1;exitY=0.5;exitDx=0;exitDy=0;labelBackgroundColor=none;fontColor=default;" edge="1" parent="1" source="Nji8UfBKLWpKqNrky-gA-31" target="Nji8UfBKLWpKqNrky-gA-35">
          <mxGeometry relative="1" as="geometry">
            <mxPoint x="130" y="350" as="sourcePoint" />
            <Array as="points">
              <mxPoint x="290" y="370" />
              <mxPoint x="290" y="370" />
            </Array>
          </mxGeometry>
        </mxCell>
        <mxCell id="Nji8UfBKLWpKqNrky-gA-19" value="1...1" style="edgeLabel;html=1;align=center;verticalAlign=middle;resizable=0;points=[];labelBackgroundColor=none;" vertex="1" connectable="0" parent="Nji8UfBKLWpKqNrky-gA-18">
          <mxGeometry x="-0.9141" y="1" relative="1" as="geometry">
            <mxPoint as="offset" />
          </mxGeometry>
        </mxCell>
        <mxCell id="Nji8UfBKLWpKqNrky-gA-20" value="1...N" style="edgeLabel;html=1;align=center;verticalAlign=middle;resizable=0;points=[];labelBackgroundColor=none;" vertex="1" connectable="0" parent="Nji8UfBKLWpKqNrky-gA-18">
          <mxGeometry x="0.7575" y="1" relative="1" as="geometry">
            <mxPoint as="offset" />
          </mxGeometry>
        </mxCell>
        <mxCell id="Nji8UfBKLWpKqNrky-gA-21" style="edgeStyle=orthogonalEdgeStyle;rounded=0;orthogonalLoop=1;jettySize=auto;html=1;entryX=0.5;entryY=0;entryDx=0;entryDy=0;endArrow=none;endFill=0;labelBackgroundColor=none;fontColor=default;" edge="1" parent="1">
          <mxGeometry relative="1" as="geometry">
            <mxPoint x="130" y="400" as="sourcePoint" />
            <mxPoint x="210" y="589.94" as="targetPoint" />
          </mxGeometry>
        </mxCell>
        <mxCell id="Nji8UfBKLWpKqNrky-gA-22" value="1...N" style="edgeLabel;html=1;align=center;verticalAlign=middle;resizable=0;points=[];labelBackgroundColor=none;" vertex="1" connectable="0" parent="Nji8UfBKLWpKqNrky-gA-21">
          <mxGeometry x="-0.8557" relative="1" as="geometry">
            <mxPoint as="offset" />
          </mxGeometry>
        </mxCell>
        <mxCell id="Nji8UfBKLWpKqNrky-gA-23" value="1...1" style="edgeLabel;html=1;align=center;verticalAlign=middle;resizable=0;points=[];labelBackgroundColor=none;" vertex="1" connectable="0" parent="Nji8UfBKLWpKqNrky-gA-21">
          <mxGeometry x="0.8645" y="1" relative="1" as="geometry">
            <mxPoint as="offset" />
          </mxGeometry>
        </mxCell>
        <mxCell id="Nji8UfBKLWpKqNrky-gA-24" value="1...1" style="edgeLabel;html=1;align=center;verticalAlign=middle;resizable=0;points=[];labelBackgroundColor=none;" vertex="1" connectable="0" parent="Nji8UfBKLWpKqNrky-gA-21">
          <mxGeometry x="0.6522" y="2" relative="1" as="geometry">
            <mxPoint as="offset" />
          </mxGeometry>
        </mxCell>
        <mxCell id="Nji8UfBKLWpKqNrky-gA-25" style="edgeStyle=orthogonalEdgeStyle;rounded=0;orthogonalLoop=1;jettySize=auto;html=1;exitX=0.5;exitY=1;exitDx=0;exitDy=0;entryX=0.5;entryY=0;entryDx=0;entryDy=0;endArrow=none;endFill=0;labelBackgroundColor=none;fontColor=default;" edge="1" parent="1" source="Nji8UfBKLWpKqNrky-gA-31" target="Nji8UfBKLWpKqNrky-gA-72">
          <mxGeometry relative="1" as="geometry" />
        </mxCell>
        <mxCell id="Nji8UfBKLWpKqNrky-gA-26" value="0...N" style="edgeLabel;html=1;align=center;verticalAlign=middle;resizable=0;points=[];labelBackgroundColor=none;" vertex="1" connectable="0" parent="Nji8UfBKLWpKqNrky-gA-25">
          <mxGeometry x="-0.7475" y="-1" relative="1" as="geometry">
            <mxPoint as="offset" />
          </mxGeometry>
        </mxCell>
        <mxCell id="Nji8UfBKLWpKqNrky-gA-27" value="1...N" style="edgeLabel;html=1;align=center;verticalAlign=middle;resizable=0;points=[];labelBackgroundColor=none;" vertex="1" connectable="0" parent="Nji8UfBKLWpKqNrky-gA-25">
          <mxGeometry x="0.715" y="1" relative="1" as="geometry">
            <mxPoint as="offset" />
          </mxGeometry>
        </mxCell>
        <mxCell id="Nji8UfBKLWpKqNrky-gA-28" style="edgeStyle=orthogonalEdgeStyle;rounded=0;orthogonalLoop=1;jettySize=auto;html=1;exitX=1;exitY=0.75;exitDx=0;exitDy=0;entryX=0.5;entryY=0;entryDx=0;entryDy=0;endArrow=none;endFill=0;labelBackgroundColor=none;fontColor=default;" edge="1" parent="1" source="Nji8UfBKLWpKqNrky-gA-31" target="Nji8UfBKLWpKqNrky-gA-45">
          <mxGeometry relative="1" as="geometry">
            <Array as="points">
              <mxPoint x="360" y="385" />
              <mxPoint x="360" y="560" />
            </Array>
          </mxGeometry>
        </mxCell>
        <mxCell id="Nji8UfBKLWpKqNrky-gA-29" value="0...N" style="edgeLabel;html=1;align=center;verticalAlign=middle;resizable=0;points=[];labelBackgroundColor=none;" vertex="1" connectable="0" parent="Nji8UfBKLWpKqNrky-gA-28">
          <mxGeometry x="-0.9085" relative="1" as="geometry">
            <mxPoint as="offset" />
          </mxGeometry>
        </mxCell>
        <mxCell id="Nji8UfBKLWpKqNrky-gA-30" value="0...N" style="edgeLabel;html=1;align=center;verticalAlign=middle;resizable=0;points=[];labelBackgroundColor=none;" vertex="1" connectable="0" parent="Nji8UfBKLWpKqNrky-gA-28">
          <mxGeometry x="0.8949" y="-1" relative="1" as="geometry">
            <mxPoint as="offset" />
          </mxGeometry>
        </mxCell>
        <mxCell id="Nji8UfBKLWpKqNrky-gA-31" value="Product" style="rounded=0;whiteSpace=wrap;html=1;labelBackgroundColor=none;" vertex="1" parent="1">
          <mxGeometry x="10" y="340" width="120" height="60" as="geometry" />
        </mxCell>
        <mxCell id="Nji8UfBKLWpKqNrky-gA-32" style="edgeStyle=orthogonalEdgeStyle;rounded=0;orthogonalLoop=1;jettySize=auto;html=1;exitX=0.5;exitY=1;exitDx=0;exitDy=0;entryX=0.5;entryY=0;entryDx=0;entryDy=0;endArrow=none;endFill=0;labelBackgroundColor=none;fontColor=default;" edge="1" parent="1" source="Nji8UfBKLWpKqNrky-gA-35" target="Nji8UfBKLWpKqNrky-gA-80">
          <mxGeometry relative="1" as="geometry" />
        </mxCell>
        <mxCell id="Nji8UfBKLWpKqNrky-gA-33" value="0...N" style="edgeLabel;html=1;align=center;verticalAlign=middle;resizable=0;points=[];labelBackgroundColor=none;" vertex="1" connectable="0" parent="Nji8UfBKLWpKqNrky-gA-32">
          <mxGeometry x="-0.77" relative="1" as="geometry">
            <mxPoint as="offset" />
          </mxGeometry>
        </mxCell>
        <mxCell id="Nji8UfBKLWpKqNrky-gA-34" value="0...N" style="edgeLabel;html=1;align=center;verticalAlign=middle;resizable=0;points=[];labelBackgroundColor=none;" vertex="1" connectable="0" parent="Nji8UfBKLWpKqNrky-gA-32">
          <mxGeometry x="0.8175" y="-1" relative="1" as="geometry">
            <mxPoint as="offset" />
          </mxGeometry>
        </mxCell>
        <mxCell id="Nji8UfBKLWpKqNrky-gA-35" value="Variant" style="rounded=0;whiteSpace=wrap;html=1;labelBackgroundColor=none;" vertex="1" parent="1">
          <mxGeometry x="500" y="340" width="120" height="60" as="geometry" />
        </mxCell>
        <mxCell id="Nji8UfBKLWpKqNrky-gA-36" value="Manufacturer" style="rounded=0;whiteSpace=wrap;html=1;labelBackgroundColor=none;" vertex="1" parent="1">
          <mxGeometry x="150" y="560" width="120" height="60" as="geometry" />
        </mxCell>
        <mxCell id="Nji8UfBKLWpKqNrky-gA-37" value="" style="edgeStyle=orthogonalEdgeStyle;rounded=0;orthogonalLoop=1;jettySize=auto;html=1;endArrow=none;endFill=0;labelBackgroundColor=none;fontColor=default;exitX=0;exitY=0;exitDx=0;exitDy=0;entryX=0.5;entryY=1;entryDx=0;entryDy=0;" edge="1" parent="1" source="Nji8UfBKLWpKqNrky-gA-40" target="Nji8UfBKLWpKqNrky-gA-59">
          <mxGeometry relative="1" as="geometry">
            <Array as="points">
              <mxPoint x="730" y="310" />
              <mxPoint x="660" y="310" />
            </Array>
          </mxGeometry>
        </mxCell>
        <mxCell id="Nji8UfBKLWpKqNrky-gA-38" value="0...N" style="edgeLabel;html=1;align=center;verticalAlign=middle;resizable=0;points=[];labelBackgroundColor=none;" vertex="1" connectable="0" parent="Nji8UfBKLWpKqNrky-gA-37">
          <mxGeometry x="-0.6302" y="2" relative="1" as="geometry">
            <mxPoint x="2" y="6" as="offset" />
          </mxGeometry>
        </mxCell>
        <mxCell id="Nji8UfBKLWpKqNrky-gA-39" value="1...1" style="edgeLabel;html=1;align=center;verticalAlign=middle;resizable=0;points=[];labelBackgroundColor=none;" vertex="1" connectable="0" parent="Nji8UfBKLWpKqNrky-gA-37">
          <mxGeometry x="0.382" y="2" relative="1" as="geometry">
            <mxPoint x="-17" y="-12" as="offset" />
          </mxGeometry>
        </mxCell>
        <mxCell id="Nji8UfBKLWpKqNrky-gA-40" value="StockItem" style="rounded=0;whiteSpace=wrap;html=1;labelBackgroundColor=none;" vertex="1" parent="1">
          <mxGeometry x="730" y="340" width="120" height="60" as="geometry" />
        </mxCell>
        <mxCell id="Nji8UfBKLWpKqNrky-gA-41" style="edgeStyle=orthogonalEdgeStyle;rounded=0;orthogonalLoop=1;jettySize=auto;html=1;exitX=0.5;exitY=1;exitDx=0;exitDy=0;entryX=0.5;entryY=0;entryDx=0;entryDy=0;endArrow=none;endFill=0;labelBackgroundColor=none;fontColor=default;" edge="1" parent="1" source="Nji8UfBKLWpKqNrky-gA-44" target="Nji8UfBKLWpKqNrky-gA-31">
          <mxGeometry relative="1" as="geometry" />
        </mxCell>
        <mxCell id="Nji8UfBKLWpKqNrky-gA-42" value="0...N" style="edgeLabel;html=1;align=center;verticalAlign=middle;resizable=0;points=[];labelBackgroundColor=none;" vertex="1" connectable="0" parent="Nji8UfBKLWpKqNrky-gA-41">
          <mxGeometry x="-0.8563" relative="1" as="geometry">
            <mxPoint as="offset" />
          </mxGeometry>
        </mxCell>
        <mxCell id="Nji8UfBKLWpKqNrky-gA-43" value="1...1" style="edgeLabel;html=1;align=center;verticalAlign=middle;resizable=0;points=[];labelBackgroundColor=none;" vertex="1" connectable="0" parent="Nji8UfBKLWpKqNrky-gA-41">
          <mxGeometry x="0.8495" relative="1" as="geometry">
            <mxPoint as="offset" />
          </mxGeometry>
        </mxCell>
        <mxCell id="Nji8UfBKLWpKqNrky-gA-44" value="Review" style="rounded=0;whiteSpace=wrap;html=1;labelBackgroundColor=none;" vertex="1" parent="1">
          <mxGeometry x="10" y="10" width="120" height="60" as="geometry" />
        </mxCell>
        <mxCell id="Nji8UfBKLWpKqNrky-gA-45" value="Attribute" style="rounded=0;whiteSpace=wrap;html=1;labelBackgroundColor=none;" vertex="1" parent="1">
          <mxGeometry x="294" y="560" width="120" height="60" as="geometry" />
        </mxCell>
        <mxCell id="Nji8UfBKLWpKqNrky-gA-46" value="DeliveryMethod" style="rounded=0;whiteSpace=wrap;html=1;labelBackgroundColor=none;" vertex="1" parent="1">
          <mxGeometry x="940" y="10" width="120" height="60" as="geometry" />
        </mxCell>
        <mxCell id="Nji8UfBKLWpKqNrky-gA-47" style="edgeStyle=orthogonalEdgeStyle;rounded=0;orthogonalLoop=1;jettySize=auto;html=1;exitX=1;exitY=0.5;exitDx=0;exitDy=0;endArrow=none;endFill=0;entryX=0;entryY=0.5;entryDx=0;entryDy=0;labelBackgroundColor=none;fontColor=default;" edge="1" parent="1" source="Nji8UfBKLWpKqNrky-gA-44" target="Nji8UfBKLWpKqNrky-gA-8">
          <mxGeometry relative="1" as="geometry">
            <mxPoint x="190" y="120" as="sourcePoint" />
            <mxPoint x="240" y="120" as="targetPoint" />
          </mxGeometry>
        </mxCell>
        <mxCell id="Nji8UfBKLWpKqNrky-gA-48" value="1...1" style="edgeLabel;html=1;align=center;verticalAlign=middle;resizable=0;points=[];labelBackgroundColor=none;" vertex="1" connectable="0" parent="Nji8UfBKLWpKqNrky-gA-47">
          <mxGeometry x="0.7167" y="1" relative="1" as="geometry">
            <mxPoint as="offset" />
          </mxGeometry>
        </mxCell>
        <mxCell id="Nji8UfBKLWpKqNrky-gA-49" value="0...N" style="edgeLabel;html=1;align=center;verticalAlign=middle;resizable=0;points=[];labelBackgroundColor=none;" vertex="1" connectable="0" parent="Nji8UfBKLWpKqNrky-gA-47">
          <mxGeometry x="-0.7024" y="1" relative="1" as="geometry">
            <mxPoint as="offset" />
          </mxGeometry>
        </mxCell>
        <mxCell id="Nji8UfBKLWpKqNrky-gA-50" style="rounded=0;orthogonalLoop=1;jettySize=auto;html=1;exitX=0.5;exitY=0;exitDx=0;exitDy=0;entryX=0.5;entryY=1;entryDx=0;entryDy=0;endArrow=none;endFill=0;labelBackgroundColor=none;fontColor=default;" edge="1" parent="1" source="Nji8UfBKLWpKqNrky-gA-67" target="Nji8UfBKLWpKqNrky-gA-9">
          <mxGeometry relative="1" as="geometry">
            <mxPoint x="420" y="180" as="sourcePoint" />
            <mxPoint x="350" y="300" as="targetPoint" />
          </mxGeometry>
        </mxCell>
        <mxCell id="Nji8UfBKLWpKqNrky-gA-51" value="0...N" style="edgeLabel;html=1;align=center;verticalAlign=middle;resizable=0;points=[];labelBackgroundColor=none;" vertex="1" connectable="0" parent="Nji8UfBKLWpKqNrky-gA-50">
          <mxGeometry x="-0.3524" y="1" relative="1" as="geometry">
            <mxPoint as="offset" />
          </mxGeometry>
        </mxCell>
        <mxCell id="Nji8UfBKLWpKqNrky-gA-52" value="1...1" style="edgeLabel;html=1;align=center;verticalAlign=middle;resizable=0;points=[];labelBackgroundColor=none;" vertex="1" connectable="0" parent="Nji8UfBKLWpKqNrky-gA-50">
          <mxGeometry x="0.6952" y="1" relative="1" as="geometry">
            <mxPoint y="2" as="offset" />
          </mxGeometry>
        </mxCell>
        <mxCell id="Nji8UfBKLWpKqNrky-gA-53" style="edgeStyle=orthogonalEdgeStyle;rounded=0;orthogonalLoop=1;jettySize=auto;html=1;exitX=0;exitY=0;exitDx=0;exitDy=0;entryX=1;entryY=0.5;entryDx=0;entryDy=0;endArrow=none;endFill=0;labelBackgroundColor=none;fontColor=default;" edge="1" parent="1" source="Nji8UfBKLWpKqNrky-gA-35" target="Nji8UfBKLWpKqNrky-gA-67">
          <mxGeometry relative="1" as="geometry">
            <mxPoint x="440" y="380" as="sourcePoint" />
            <mxPoint x="360" y="440" as="targetPoint" />
          </mxGeometry>
        </mxCell>
        <mxCell id="Nji8UfBKLWpKqNrky-gA-54" value="1...1" style="edgeLabel;html=1;align=center;verticalAlign=middle;resizable=0;points=[];labelBackgroundColor=none;" vertex="1" connectable="0" parent="Nji8UfBKLWpKqNrky-gA-53">
          <mxGeometry x="-0.7798" y="-1" relative="1" as="geometry">
            <mxPoint y="-2" as="offset" />
          </mxGeometry>
        </mxCell>
        <mxCell id="Nji8UfBKLWpKqNrky-gA-55" value="0...N" style="edgeLabel;html=1;align=center;verticalAlign=middle;resizable=0;points=[];labelBackgroundColor=none;" vertex="1" connectable="0" parent="Nji8UfBKLWpKqNrky-gA-53">
          <mxGeometry x="0.844" relative="1" as="geometry">
            <mxPoint x="8" as="offset" />
          </mxGeometry>
        </mxCell>
        <mxCell id="Nji8UfBKLWpKqNrky-gA-56" style="edgeStyle=orthogonalEdgeStyle;rounded=0;orthogonalLoop=1;jettySize=auto;html=1;exitX=0;exitY=0.5;exitDx=0;exitDy=0;entryX=1;entryY=0.5;entryDx=0;entryDy=0;endArrow=none;endFill=0;labelBackgroundColor=none;fontColor=default;" edge="1" parent="1" source="Nji8UfBKLWpKqNrky-gA-40" target="Nji8UfBKLWpKqNrky-gA-35">
          <mxGeometry relative="1" as="geometry" />
        </mxCell>
        <mxCell id="Nji8UfBKLWpKqNrky-gA-57" value="1...1" style="edgeLabel;html=1;align=center;verticalAlign=middle;resizable=0;points=[];labelBackgroundColor=none;" vertex="1" connectable="0" parent="Nji8UfBKLWpKqNrky-gA-56">
          <mxGeometry x="0.7122" y="-1" relative="1" as="geometry">
            <mxPoint as="offset" />
          </mxGeometry>
        </mxCell>
        <mxCell id="Nji8UfBKLWpKqNrky-gA-58" value="0...N" style="edgeLabel;html=1;align=center;verticalAlign=middle;resizable=0;points=[];labelBackgroundColor=none;" vertex="1" connectable="0" parent="Nji8UfBKLWpKqNrky-gA-56">
          <mxGeometry x="-0.5204" y="-1" relative="1" as="geometry">
            <mxPoint as="offset" />
          </mxGeometry>
        </mxCell>
        <mxCell id="Nji8UfBKLWpKqNrky-gA-96" style="edgeStyle=orthogonalEdgeStyle;rounded=0;orthogonalLoop=1;jettySize=auto;html=1;exitX=0;exitY=0;exitDx=0;exitDy=0;entryX=0.75;entryY=1;entryDx=0;entryDy=0;endArrow=none;endFill=0;" edge="1" parent="1" source="Nji8UfBKLWpKqNrky-gA-59" target="Nji8UfBKLWpKqNrky-gA-88">
          <mxGeometry relative="1" as="geometry">
            <Array as="points">
              <mxPoint x="560" y="230" />
            </Array>
          </mxGeometry>
        </mxCell>
        <mxCell id="Nji8UfBKLWpKqNrky-gA-97" value="1...1" style="edgeLabel;html=1;align=center;verticalAlign=middle;resizable=0;points=[];" vertex="1" connectable="0" parent="Nji8UfBKLWpKqNrky-gA-96">
          <mxGeometry x="0.7847" relative="1" as="geometry">
            <mxPoint as="offset" />
          </mxGeometry>
        </mxCell>
        <mxCell id="Nji8UfBKLWpKqNrky-gA-98" value="0...1" style="edgeLabel;html=1;align=center;verticalAlign=middle;resizable=0;points=[];" vertex="1" connectable="0" parent="Nji8UfBKLWpKqNrky-gA-96">
          <mxGeometry x="-0.7306" y="-1" relative="1" as="geometry">
            <mxPoint x="-9" as="offset" />
          </mxGeometry>
        </mxCell>
        <mxCell id="Nji8UfBKLWpKqNrky-gA-59" value="Warehouse" style="rounded=0;whiteSpace=wrap;html=1;labelBackgroundColor=none;" vertex="1" parent="1">
          <mxGeometry x="600" y="230" width="120" height="60" as="geometry" />
        </mxCell>
        <mxCell id="Nji8UfBKLWpKqNrky-gA-60" value="" style="edgeStyle=orthogonalEdgeStyle;rounded=0;orthogonalLoop=1;jettySize=auto;html=1;endArrow=none;endFill=0;labelBackgroundColor=none;fontColor=default;" edge="1" parent="1" source="Nji8UfBKLWpKqNrky-gA-63" target="Nji8UfBKLWpKqNrky-gA-16">
          <mxGeometry relative="1" as="geometry">
            <Array as="points">
              <mxPoint x="810" y="90" />
            </Array>
          </mxGeometry>
        </mxCell>
        <mxCell id="Nji8UfBKLWpKqNrky-gA-61" value="0...N" style="edgeLabel;html=1;align=center;verticalAlign=middle;resizable=0;points=[];labelBackgroundColor=none;" vertex="1" connectable="0" parent="Nji8UfBKLWpKqNrky-gA-60">
          <mxGeometry x="0.4343" y="1" relative="1" as="geometry">
            <mxPoint as="offset" />
          </mxGeometry>
        </mxCell>
        <mxCell id="Nji8UfBKLWpKqNrky-gA-62" value="1...1" style="edgeLabel;html=1;align=center;verticalAlign=middle;resizable=0;points=[];labelBackgroundColor=none;" vertex="1" connectable="0" parent="Nji8UfBKLWpKqNrky-gA-60">
          <mxGeometry x="-0.6213" relative="1" as="geometry">
            <mxPoint y="-1" as="offset" />
          </mxGeometry>
        </mxCell>
        <mxCell id="Nji8UfBKLWpKqNrky-gA-63" value="PaymentMethod" style="rounded=0;whiteSpace=wrap;html=1;labelBackgroundColor=none;" vertex="1" parent="1">
          <mxGeometry x="940" y="90" width="120" height="60" as="geometry" />
        </mxCell>
        <mxCell id="Nji8UfBKLWpKqNrky-gA-64" value="" style="edgeStyle=orthogonalEdgeStyle;rounded=0;orthogonalLoop=1;jettySize=auto;html=1;exitX=0.25;exitY=1;exitDx=0;exitDy=0;entryX=1;entryY=0;entryDx=0;entryDy=0;endArrow=none;endFill=0;labelBackgroundColor=none;fontColor=default;" edge="1" parent="1" source="Nji8UfBKLWpKqNrky-gA-17" target="Nji8UfBKLWpKqNrky-gA-31">
          <mxGeometry relative="1" as="geometry">
            <mxPoint x="480" y="170" as="sourcePoint" />
            <mxPoint x="306" y="319" as="targetPoint" />
            <Array as="points">
              <mxPoint x="130" y="200" />
              <mxPoint x="130" y="200" />
            </Array>
          </mxGeometry>
        </mxCell>
        <mxCell id="Nji8UfBKLWpKqNrky-gA-65" value="1...1" style="edgeLabel;html=1;align=center;verticalAlign=middle;resizable=0;points=[];labelBackgroundColor=none;" vertex="1" connectable="0" parent="Nji8UfBKLWpKqNrky-gA-64">
          <mxGeometry x="0.8403" relative="1" as="geometry">
            <mxPoint as="offset" />
          </mxGeometry>
        </mxCell>
        <mxCell id="Nji8UfBKLWpKqNrky-gA-66" value="0...N" style="edgeLabel;html=1;align=center;verticalAlign=middle;resizable=0;points=[];labelBackgroundColor=none;" vertex="1" connectable="0" parent="Nji8UfBKLWpKqNrky-gA-64">
          <mxGeometry x="-0.5135" y="-2" relative="1" as="geometry">
            <mxPoint y="-17" as="offset" />
          </mxGeometry>
        </mxCell>
        <mxCell id="Nji8UfBKLWpKqNrky-gA-67" value="CartItem" style="rounded=0;whiteSpace=wrap;html=1;labelBackgroundColor=none;" vertex="1" parent="1">
          <mxGeometry x="300" y="230" width="120" height="60" as="geometry" />
        </mxCell>
        <mxCell id="Nji8UfBKLWpKqNrky-gA-68" style="edgeStyle=orthogonalEdgeStyle;rounded=0;orthogonalLoop=1;jettySize=auto;html=1;entryX=0.25;entryY=0;entryDx=0;entryDy=0;endArrow=none;endFill=0;labelBackgroundColor=none;fontColor=default;" edge="1" parent="1" source="Nji8UfBKLWpKqNrky-gA-71" target="Nji8UfBKLWpKqNrky-gA-40">
          <mxGeometry relative="1" as="geometry">
            <Array as="points">
              <mxPoint x="760" y="340" />
            </Array>
          </mxGeometry>
        </mxCell>
        <mxCell id="Nji8UfBKLWpKqNrky-gA-69" value="0...1" style="edgeLabel;html=1;align=center;verticalAlign=middle;resizable=0;points=[];labelBackgroundColor=none;" vertex="1" connectable="0" parent="Nji8UfBKLWpKqNrky-gA-68">
          <mxGeometry x="-0.8214" relative="1" as="geometry">
            <mxPoint y="7" as="offset" />
          </mxGeometry>
        </mxCell>
        <mxCell id="Nji8UfBKLWpKqNrky-gA-70" value="1...1" style="edgeLabel;html=1;align=center;verticalAlign=middle;resizable=0;points=[];labelBackgroundColor=none;" vertex="1" connectable="0" parent="Nji8UfBKLWpKqNrky-gA-68">
          <mxGeometry x="0.6845" y="-2" relative="1" as="geometry">
            <mxPoint y="5" as="offset" />
          </mxGeometry>
        </mxCell>
        <mxCell id="Nji8UfBKLWpKqNrky-gA-71" value="OrderItem" style="rounded=0;whiteSpace=wrap;html=1;labelBackgroundColor=none;" vertex="1" parent="1">
          <mxGeometry x="660" y="130" width="120" height="60" as="geometry" />
        </mxCell>
        <mxCell id="Nji8UfBKLWpKqNrky-gA-72" value="Category" style="rounded=0;whiteSpace=wrap;html=1;labelBackgroundColor=none;" vertex="1" parent="1">
          <mxGeometry x="10" y="560" width="120" height="60" as="geometry" />
        </mxCell>
        <mxCell id="Nji8UfBKLWpKqNrky-gA-73" style="edgeStyle=orthogonalEdgeStyle;rounded=0;orthogonalLoop=1;jettySize=auto;html=1;entryX=1;entryY=1;entryDx=0;entryDy=0;endArrow=none;endFill=0;labelBackgroundColor=none;fontColor=default;" edge="1" parent="1" source="Nji8UfBKLWpKqNrky-gA-76" target="Nji8UfBKLWpKqNrky-gA-35">
          <mxGeometry relative="1" as="geometry">
            <Array as="points">
              <mxPoint x="620" y="430" />
              <mxPoint x="620" y="430" />
            </Array>
          </mxGeometry>
        </mxCell>
        <mxCell id="Nji8UfBKLWpKqNrky-gA-74" value="0...N" style="edgeLabel;html=1;align=center;verticalAlign=middle;resizable=0;points=[];labelBackgroundColor=none;" vertex="1" connectable="0" parent="Nji8UfBKLWpKqNrky-gA-73">
          <mxGeometry x="0.6999" y="1" relative="1" as="geometry">
            <mxPoint as="offset" />
          </mxGeometry>
        </mxCell>
        <mxCell id="Nji8UfBKLWpKqNrky-gA-75" value="0...1" style="edgeLabel;html=1;align=center;verticalAlign=middle;resizable=0;points=[];labelBackgroundColor=none;" vertex="1" connectable="0" parent="Nji8UfBKLWpKqNrky-gA-73">
          <mxGeometry x="-0.6961" y="-1" relative="1" as="geometry">
            <mxPoint as="offset" />
          </mxGeometry>
        </mxCell>
        <mxCell id="Nji8UfBKLWpKqNrky-gA-76" value="Promotion" style="rounded=0;whiteSpace=wrap;html=1;labelBackgroundColor=none;" vertex="1" parent="1">
          <mxGeometry x="610" y="460" width="120" height="60" as="geometry" />
        </mxCell>
        <mxCell id="Nji8UfBKLWpKqNrky-gA-77" style="edgeStyle=orthogonalEdgeStyle;rounded=0;orthogonalLoop=1;jettySize=auto;html=1;entryX=1;entryY=0.5;entryDx=0;entryDy=0;endArrow=none;endFill=0;labelBackgroundColor=none;fontColor=default;" edge="1" parent="1" source="Nji8UfBKLWpKqNrky-gA-80" target="Nji8UfBKLWpKqNrky-gA-45">
          <mxGeometry relative="1" as="geometry" />
        </mxCell>
        <mxCell id="Nji8UfBKLWpKqNrky-gA-78" value="1...1" style="edgeLabel;html=1;align=center;verticalAlign=middle;resizable=0;points=[];labelBackgroundColor=none;" vertex="1" connectable="0" parent="Nji8UfBKLWpKqNrky-gA-77">
          <mxGeometry x="0.619" y="-1" relative="1" as="geometry">
            <mxPoint y="1" as="offset" />
          </mxGeometry>
        </mxCell>
        <mxCell id="Nji8UfBKLWpKqNrky-gA-79" value="1...N" style="edgeLabel;html=1;align=center;verticalAlign=middle;resizable=0;points=[];labelBackgroundColor=none;" vertex="1" connectable="0" parent="Nji8UfBKLWpKqNrky-gA-77">
          <mxGeometry x="-0.4286" relative="1" as="geometry">
            <mxPoint as="offset" />
          </mxGeometry>
        </mxCell>
        <mxCell id="Nji8UfBKLWpKqNrky-gA-80" value="Option" style="rounded=0;whiteSpace=wrap;html=1;labelBackgroundColor=none;" vertex="1" parent="1">
          <mxGeometry x="500" y="560" width="120" height="60" as="geometry" />
        </mxCell>
        <mxCell id="Nji8UfBKLWpKqNrky-gA-81" style="edgeStyle=orthogonalEdgeStyle;rounded=0;orthogonalLoop=1;jettySize=auto;html=1;exitX=0.083;exitY=-0.043;exitDx=0;exitDy=0;entryX=0.666;entryY=1.003;entryDx=0;entryDy=0;endArrow=none;endFill=0;exitPerimeter=0;entryPerimeter=0;" edge="1" parent="1" source="Nji8UfBKLWpKqNrky-gA-87" target="Nji8UfBKLWpKqNrky-gA-16">
          <mxGeometry relative="1" as="geometry">
            <Array as="points" />
          </mxGeometry>
        </mxCell>
        <mxCell id="Nji8UfBKLWpKqNrky-gA-82" value="1...1" style="edgeLabel;html=1;align=center;verticalAlign=middle;resizable=0;points=[];" vertex="1" connectable="0" parent="Nji8UfBKLWpKqNrky-gA-81">
          <mxGeometry x="0.7608" y="2" relative="1" as="geometry">
            <mxPoint as="offset" />
          </mxGeometry>
        </mxCell>
        <mxCell id="Nji8UfBKLWpKqNrky-gA-83" value="1...N" style="edgeLabel;html=1;align=center;verticalAlign=middle;resizable=0;points=[];" vertex="1" connectable="0" parent="Nji8UfBKLWpKqNrky-gA-81">
          <mxGeometry x="-0.7733" y="1" relative="1" as="geometry">
            <mxPoint as="offset" />
          </mxGeometry>
        </mxCell>
        <mxCell id="Nji8UfBKLWpKqNrky-gA-84" style="edgeStyle=orthogonalEdgeStyle;rounded=0;orthogonalLoop=1;jettySize=auto;html=1;exitX=0.178;exitY=0.975;exitDx=0;exitDy=0;endArrow=none;endFill=0;exitPerimeter=0;" edge="1" parent="1" source="Nji8UfBKLWpKqNrky-gA-87" target="Nji8UfBKLWpKqNrky-gA-40">
          <mxGeometry relative="1" as="geometry">
            <Array as="points">
              <mxPoint x="820" y="188" />
            </Array>
          </mxGeometry>
        </mxCell>
        <mxCell id="Nji8UfBKLWpKqNrky-gA-85" value="1...N" style="edgeLabel;html=1;align=center;verticalAlign=middle;resizable=0;points=[];" vertex="1" connectable="0" parent="Nji8UfBKLWpKqNrky-gA-84">
          <mxGeometry x="0.831" relative="1" as="geometry">
            <mxPoint y="-7" as="offset" />
          </mxGeometry>
        </mxCell>
        <mxCell id="Nji8UfBKLWpKqNrky-gA-86" value="0...1" style="edgeLabel;html=1;align=center;verticalAlign=middle;resizable=0;points=[];" vertex="1" connectable="0" parent="Nji8UfBKLWpKqNrky-gA-84">
          <mxGeometry x="-0.9012" y="-2" relative="1" as="geometry">
            <mxPoint y="15" as="offset" />
          </mxGeometry>
        </mxCell>
        <mxCell id="Nji8UfBKLWpKqNrky-gA-87" value="Shipment" style="rounded=0;whiteSpace=wrap;html=1;" vertex="1" parent="1">
          <mxGeometry x="800" y="130" width="120" height="60" as="geometry" />
        </mxCell>
        <mxCell id="Nji8UfBKLWpKqNrky-gA-93" style="edgeStyle=orthogonalEdgeStyle;rounded=0;orthogonalLoop=1;jettySize=auto;html=1;exitX=0.25;exitY=0;exitDx=0;exitDy=0;entryX=1;entryY=0.75;entryDx=0;entryDy=0;endArrow=none;endFill=0;" edge="1" parent="1" source="Nji8UfBKLWpKqNrky-gA-88" target="Nji8UfBKLWpKqNrky-gA-8">
          <mxGeometry relative="1" as="geometry" />
        </mxCell>
        <mxCell id="Nji8UfBKLWpKqNrky-gA-99" value="0...1" style="edgeLabel;html=1;align=center;verticalAlign=middle;resizable=0;points=[];" vertex="1" connectable="0" parent="Nji8UfBKLWpKqNrky-gA-93">
          <mxGeometry x="-0.8132" relative="1" as="geometry">
            <mxPoint as="offset" />
          </mxGeometry>
        </mxCell>
        <mxCell id="Nji8UfBKLWpKqNrky-gA-100" value="0...N" style="edgeLabel;html=1;align=center;verticalAlign=middle;resizable=0;points=[];" vertex="1" connectable="0" parent="Nji8UfBKLWpKqNrky-gA-93">
          <mxGeometry x="0.8734" relative="1" as="geometry">
            <mxPoint x="10" as="offset" />
          </mxGeometry>
        </mxCell>
        <mxCell id="Nji8UfBKLWpKqNrky-gA-94" style="edgeStyle=orthogonalEdgeStyle;rounded=0;orthogonalLoop=1;jettySize=auto;html=1;exitX=0.5;exitY=0;exitDx=0;exitDy=0;entryX=0;entryY=0.75;entryDx=0;entryDy=0;endArrow=none;endFill=0;" edge="1" parent="1" source="Nji8UfBKLWpKqNrky-gA-88" target="Nji8UfBKLWpKqNrky-gA-16">
          <mxGeometry relative="1" as="geometry" />
        </mxCell>
        <mxCell id="Nji8UfBKLWpKqNrky-gA-102" value="1...1" style="edgeLabel;html=1;align=center;verticalAlign=middle;resizable=0;points=[];" vertex="1" connectable="0" parent="Nji8UfBKLWpKqNrky-gA-94">
          <mxGeometry x="-0.8974" y="1" relative="1" as="geometry">
            <mxPoint as="offset" />
          </mxGeometry>
        </mxCell>
        <mxCell id="Nji8UfBKLWpKqNrky-gA-105" value="0...N" style="edgeLabel;html=1;align=center;verticalAlign=middle;resizable=0;points=[];" vertex="1" connectable="0" parent="Nji8UfBKLWpKqNrky-gA-94">
          <mxGeometry x="0.843" y="2" relative="1" as="geometry">
            <mxPoint as="offset" />
          </mxGeometry>
        </mxCell>
        <mxCell id="Nji8UfBKLWpKqNrky-gA-106" value="billing_address_id" style="edgeLabel;html=1;align=center;verticalAlign=middle;resizable=0;points=[];" vertex="1" connectable="0" parent="Nji8UfBKLWpKqNrky-gA-94">
          <mxGeometry x="0.1588" y="1" relative="1" as="geometry">
            <mxPoint x="-17" as="offset" />
          </mxGeometry>
        </mxCell>
        <mxCell id="Nji8UfBKLWpKqNrky-gA-95" style="edgeStyle=orthogonalEdgeStyle;rounded=0;orthogonalLoop=1;jettySize=auto;html=1;exitX=0.75;exitY=0;exitDx=0;exitDy=0;entryX=0;entryY=1;entryDx=0;entryDy=0;endArrow=none;endFill=0;" edge="1" parent="1" source="Nji8UfBKLWpKqNrky-gA-88" target="Nji8UfBKLWpKqNrky-gA-16">
          <mxGeometry relative="1" as="geometry">
            <Array as="points">
              <mxPoint x="560" y="70" />
            </Array>
          </mxGeometry>
        </mxCell>
        <mxCell id="Nji8UfBKLWpKqNrky-gA-101" value="1...1" style="edgeLabel;html=1;align=center;verticalAlign=middle;resizable=0;points=[];" vertex="1" connectable="0" parent="Nji8UfBKLWpKqNrky-gA-95">
          <mxGeometry x="-0.8886" y="1" relative="1" as="geometry">
            <mxPoint as="offset" />
          </mxGeometry>
        </mxCell>
        <mxCell id="Nji8UfBKLWpKqNrky-gA-103" value="0...N" style="edgeLabel;html=1;align=center;verticalAlign=middle;resizable=0;points=[];" vertex="1" connectable="0" parent="Nji8UfBKLWpKqNrky-gA-95">
          <mxGeometry x="0.8029" relative="1" as="geometry">
            <mxPoint as="offset" />
          </mxGeometry>
        </mxCell>
        <mxCell id="Nji8UfBKLWpKqNrky-gA-107" value="shipping_address_id" style="edgeLabel;html=1;align=center;verticalAlign=middle;resizable=0;points=[];" vertex="1" connectable="0" parent="Nji8UfBKLWpKqNrky-gA-95">
          <mxGeometry x="0.0314" y="1" relative="1" as="geometry">
            <mxPoint x="7" as="offset" />
          </mxGeometry>
        </mxCell>
        <mxCell id="Nji8UfBKLWpKqNrky-gA-88" value="Address" style="rounded=0;whiteSpace=wrap;html=1;" vertex="1" parent="1">
          <mxGeometry x="470" y="130" width="120" height="60" as="geometry" />
        </mxCell>
      </root>
    </mxGraphModel>
  </diagram>
</mxfile>
